<?xml version="1.0" encoding="UTF-8"?>
<svg width="1200pt" height="1200pt" version="1.1" viewBox="0 0 1200 1200" xmlns="http://www.w3.org/2000/svg">
 <path d="m220.72 0.011719c-8.6484-0.24609-17.008 3.9258-23.195 11.57-6.1836 7.6406-9.6758 18.113-9.6797 29.051v329.68c-17.469 39.125-26.492 80.859-26.594 123 0.14062 48.504 12.105 96.398 35.059 140.34-14.008 4.2578-28.23 9.9414-41.469 16.016-33.07 15.184-60.062 32.375-60.062 32.375l7.0859 11.254s26.398-16.75 58.508-31.477c13.629-6.2539 28.246-12.012 42.152-16.066 4.9961 8.6445 10.41 17.09 16.23 25.312-16.875 4.3086-34.484 11.242-50.652 18.645-33.07 15.184-60.062 32.348-60.062 32.348l7.0859 11.254s26.398-16.711 58.508-31.453c16.055-7.3633 33.523-14.211 49.527-18.176 1.5547-0.39063 2.9922-0.60547 4.5234-0.93359 6.6562 8.6367 13.762 16.988 21.297 25.027-5.1406 0.70703-10.344 1.6406-15.688 2.9688-17.254 4.2812-35.355 11.395-51.891 18.984-33.07 15.184-60.062 32.336-60.062 32.336l7.0859 11.254s26.398-16.723 58.508-31.453c16.055-7.3633 33.523-14.211 49.527-18.176 8.9688-2.2227 17.344-3.3477 24.77-3.4375h0.003906c6.6211 6.3086 13.516 12.379 20.668 18.207-18.059 35.852-27.492 75.105-27.605 114.89 0 43.355 11.07 86.059 32.246 124.41 21.18 38.348 51.828 71.184 89.293 95.668-23.438 21.027-33.211 48.074-26.23 72.578 5.7617 20.07 22.258 36.578 45.867 45.891 23.605 9.3125 52.387 10.668 80.004 3.7695 22.5-5.6562 42.855-16.457 58.016-30.781 15.168 14.328 35.535 25.129 58.043 30.781 27.613 6.8984 56.391 5.5469 79.996-3.7617 23.605-9.3086 40.105-25.809 45.875-45.871 7.0273-24.598-2.832-51.75-26.434-72.812 28.57-18.559 53.289-42.02 72.895-69.191 22.801 10.699 45.031 28.672 67.68 46.801 56.086 44.895 130.61 57.223 187.68 22.445 57.07-34.773 86.766-105.56 86.035-192.97 0.078125-14.414-5.6641-28.246-15.918-38.348-10.254-10.098-24.145-15.609-38.516-15.27-14.094 0.32812-27.484 6.2539-37.223 16.48-9.7422 10.227-15.035 23.91-14.715 38.047 0.51953 63.41-19.82 91.719-34.902 100.91-15.082 9.1953-34.863 10.332-66.09-14.664-20.742-16.598-50.262-42.707-90.781-60.984 3.7344-17.484 5.625-35.281 5.6367-53.125-0.09375-39.762-9.5-78.996-27.527-114.84 7.0469-5.8477 13.84-11.938 20.359-18.258 7.4922 0.14062 15.93 1.1992 24.984 3.4375 16.004 3.9648 33.473 10.812 49.527 18.176 32.109 14.742 58.508 31.453 58.508 31.453l7.1133-11.254s-27.031-17.168-60.09-32.336c-16.535-7.5898-34.598-14.703-51.867-18.984-5.1914-1.2891-10.281-2.2109-15.297-2.918h0.007812c7.5156-8.0312 14.602-16.375 21.242-25 1.4023 0.30469 2.7266 0.50391 4.1562 0.84766 16.004 3.9648 33.461 10.812 49.527 18.176 32.109 14.742 58.508 31.453 58.508 31.453l7.1133-11.254s-27.031-17.168-60.09-32.348c-16.23-7.4531-33.93-14.426-50.906-18.719v-0.003907c5.832-8.2227 11.254-16.668 16.258-25.316 13.984 4.0664 28.688 9.8516 42.402 16.145 32.109 14.742 58.508 31.477 58.508 31.477l7.1133-11.254s-27.031-17.191-60.09-32.375c-13.25-6.0742-27.461-11.762-41.469-16.016h0.003906c22.961-43.938 34.934-91.828 35.082-140.34-0.050782-42.258-9.0742-84.121-26.59-123.36v-329.3c-0.007813-10.941-3.5-21.418-9.6914-29.062-6.1914-7.6484-14.559-11.812-23.211-11.559-5.3867 0.15234-10.656 2.0156-15.324 5.4141l-221.47 161.7v0.003906c-24.996-4.6992-50.469-7.082-76.012-7.1094-25.449 0.125-50.812 2.5859-75.703 7.3438l-221.8-161.93c-4.668-3.3984-9.9375-5.2617-15.324-5.418m7.0117 79.984 75.551 151.48c-29.027 20.48-54.488 44.711-75.543 71.902v-223.38m611.62 0v223.88-0.003906c-21.078-27.273-46.586-51.574-75.676-72.109l75.676-151.71m-497.18 373.38c13.16-0.25391 26.613 1.2266 39.914 4.5078 53.117 13.199 93.359 53.09 98.211 101.02l0.003907 0.003906c0.30078 2.9414-0.52344 5.8828-2.3125 8.2305-29.746 38.957-85.453 54.82-138.64 41.695-53.117-13.199-93.387-53.09-98.234-101.02v0.003907c-0.30469-2.9375 0.52344-5.8828 2.3086-8.2305 22.32-29.23 59.23-45.449 98.742-46.195zm382.74 0c39.5 0.74609 76.422 16.965 98.742 46.195v0.003906c1.7852 2.3477 2.6133 5.2891 2.3086 8.2266-4.8633 47.926-45.133 87.816-98.234 101.02-53.191 13.125-108.9-2.7266-138.64-41.695-1.7891-2.3477-2.6133-5.293-2.3125-8.2305 4.8633-47.926 45.105-87.816 98.211-101.02 13.301-3.2852 26.742-4.7617 39.914-4.5078zm-331 26.641v0.003906c-8.8164 0-17.27 4.2148-23.504 11.715-6.2344 7.5039-9.7383 17.68-9.7383 28.289 0.003906 10.605 3.5039 20.781 9.7383 28.281 6.2344 7.5039 14.688 11.715 23.504 11.715s17.27-4.2109 23.504-11.715c6.2344-7.5 9.7383-17.676 9.7383-28.281 0-10.609-3.5039-20.785-9.7383-28.289-6.2305-7.5-14.688-11.715-23.504-11.715m279.25 0c-8.8125 0-17.27 4.2148-23.504 11.719-6.2344 7.5-9.7344 17.676-9.7344 28.285 0 10.605 3.5039 20.781 9.7344 28.281 6.2344 7.5 14.691 11.715 23.504 11.715 8.8125-0.007813 17.262-4.2266 23.488-11.727 6.2305-7.5 9.7266-17.668 9.7266-28.27 0-10.605-3.4961-20.777-9.7266-28.277-6.2266-7.5-14.676-11.719-23.488-11.727m-139.61 159.97c10.578 0 20.727 2.8086 28.207 7.8086 7.4805 5.0039 11.684 11.785 11.684 18.855 0 7.0742-4.2031 13.855-11.684 18.855-7.4805 5.0039-17.625 7.8125-28.207 7.8125-10.578 0-20.723-2.8086-28.203-7.8086-7.4805-5.0039-11.684-11.785-11.684-18.859 0-7.0703 4.2031-13.852 11.684-18.855 7.4805-5 17.625-7.8086 28.203-7.8086"/>
</svg>
